<?xml version="1.0" encoding="UTF-8"?>
<svg
  xmlns="http://www.w3.org/2000/svg"
  width="320"
  height="96"
  viewBox="0 0 320 96"
  role="img"
  aria-labelledby="echomagnetTitle echomagnetDesc"
>
  <title id="echomagnetTitle">EchoMagnet logo</title>
  <desc id="echomagnetDesc">
    Stylised white horseshoe magnet emitting waves next to the EchoMagnet wordmark.
  </desc>
  <g transform="translate(24 16) scale(3.2)">
    <path
      d="m6 15-4-4 6.75-6.77a7.79 7.79 0 0 1 11 11L13 22l-4-4 6.39-6.36a2.14 2.14 0 0 0-3-3L6 15"
      fill="none"
      stroke="#ffffff"
      stroke-width="1.6"
      stroke-linecap="round"
      stroke-linejoin="round"
    />
    <path
      d="m5 8 4 4"
      fill="none"
      stroke="#ffffff"
      stroke-width="1.6"
      stroke-linecap="round"
      stroke-linejoin="round"
    />
    <path
      d="m12 15 4 4"
      fill="none"
      stroke="#ffffff"
      stroke-width="1.6"
      stroke-linecap="round"
      stroke-linejoin="round"
    />
    <path
      d="M19 6.25c1.9-1.9 5-1.9 6.9 0"
      fill="none"
      stroke="#ffffff"
      stroke-width="1.6"
      stroke-linecap="round"
    />
    <path
      d="M21.4 3.85c1.45-1.45 3.8-1.45 5.25 0"
      fill="none"
      stroke="#ffffff"
      stroke-width="1.6"
      stroke-linecap="round"
    />
    <path
      d="M23.8 1.45c1-1 2.65-1 3.65 0"
      fill="none"
      stroke="#ffffff"
      stroke-width="1.6"
      stroke-linecap="round"
    />
  </g>
  <text
    x="128"
    y="60"
    fill="#ffffff"
    font-family="'Inter', 'Segoe UI', 'Helvetica Neue', Arial, sans-serif"
    font-size="40"
    font-weight="600"
    letter-spacing="0.5"
  >
    EchoMagnet
  </text>
</svg>
