<?xml version="1.0" encoding="utf-8"?>
<!-- Generator: Adobe Illustrator 18.1.1, SVG Export Plug-In . SVG Version: 6.00 Build 0)  -->
<svg version="1.1" id="Layer_1" xmlns="http://www.w3.org/2000/svg" xmlns:xlink="http://www.w3.org/1999/xlink" x="0px" y="0px"
	 viewBox="0 0 80 16" enable-background="new 0 0 80 16" xml:space="preserve">
<g>
	<path fill="#FFFFFF" d="M9,8.8h0.3l-0.9,3.3c-0.3-0.3-0.9-0.4-1.9-0.4H1.3v-0.2c0.2,0,0.4-0.2,0.5-0.4C2,10.9,2,10.7,2,10.4V3.1
		C2,2.8,2,2.5,1.8,2.3C1.7,2.1,1.5,1.9,1.3,1.9V1.7h5c0.8,0,1.5-0.1,1.9-0.4L9,4.2H8.8C8.6,3.8,8.4,3.5,8.3,3.4
		C8.1,3.2,7.9,2.9,7.6,2.7C7,2.2,6.2,2,4.9,2H4v3.9h1c0.6,0,1.1-0.1,1.4-0.3C6.7,5.3,6.9,5,7,4.6h0.2v2.8H7c-0.1-0.4-0.2-0.8-0.6-1
		C6.1,6.2,5.6,6.1,5,6.1H4v5c0.4,0.2,1,0.3,1.6,0.3c0.8,0,1.5-0.2,2.1-0.7C8.2,10.3,8.7,9.6,9,8.8z"/>
	<path fill="#FFFFFF" d="M13.1,11.9c-0.9,0-1.7-0.4-2.4-1.1c-0.7-0.7-1-1.6-1-2.6c0-1,0.3-1.9,1-2.6c0.7-0.7,1.6-1.1,2.6-1.1
		c0.7,0,1.3,0.2,1.8,0.6C15.7,5.6,16,6.1,16,6.6c0,0.3-0.1,0.6-0.3,0.8c-0.2,0.2-0.4,0.3-0.7,0.3c-0.2,0-0.4-0.1-0.6-0.3
		c-0.2-0.2-0.3-0.4-0.3-0.6c0-0.1,0.1-0.3,0.2-0.5c0.1-0.2,0.2-0.4,0.2-0.5c0-0.2-0.1-0.5-0.4-0.7c-0.3-0.2-0.6-0.3-1-0.3
		c-0.6,0-1,0.2-1.3,0.6c-0.3,0.4-0.5,1-0.5,1.7c0,1,0.2,1.9,0.7,2.5c0.5,0.6,1.2,0.9,2,0.9c0.4,0,0.8-0.1,1.1-0.3
		c0.4-0.2,0.7-0.5,0.9-0.9v0.4c-0.2,0.7-0.6,1.2-1.1,1.6C14.4,11.7,13.8,11.9,13.1,11.9z"/>
	<path fill="#FFFFFF" d="M23.4,10.2c0,0.3,0.1,0.6,0.2,0.9c0.2,0.2,0.3,0.4,0.5,0.4v0.2h-3.3v-0.2c0.2,0,0.4-0.2,0.5-0.4
		c0.2-0.2,0.2-0.5,0.2-0.9V7.4c0-0.8-0.1-1.4-0.3-1.8c-0.2-0.3-0.4-0.5-0.8-0.5c-0.3,0-0.5,0.1-0.7,0.3c-0.2,0.2-0.4,0.5-0.6,0.8v4
		c0,0.4,0.1,0.7,0.2,0.9c0.1,0.2,0.3,0.4,0.5,0.4v0.2h-3.3v-0.2c0.2,0,0.4-0.2,0.5-0.4c0.2-0.2,0.2-0.5,0.2-0.9V3
		c0-0.6-0.3-1-0.8-1.2V1.6l2.6-0.5v4.7c0.5-0.8,1.1-1.2,1.9-1.2c0.7,0,1.3,0.2,1.7,0.7c0.4,0.5,0.6,1.1,0.6,1.9V10.2z"/>
	<path fill="#FFFFFF" d="M30.9,10.8c-0.7,0.7-1.6,1.1-2.6,1.1c-1,0-1.9-0.4-2.6-1.1c-0.7-0.7-1.1-1.6-1.1-2.6c0-1,0.4-1.9,1.1-2.6
		c0.7-0.7,1.6-1.1,2.6-1.1c1,0,1.9,0.4,2.6,1.1C31.6,6.4,32,7.2,32,8.2C32,9.2,31.6,10.1,30.9,10.8z M28.9,11.6
		c0.4,0,0.6-0.2,0.9-0.6c0.2-0.4,0.3-1,0.3-1.6c0-0.6-0.1-1.2-0.3-1.9c-0.2-0.7-0.5-1.3-0.8-1.8c-0.4-0.5-0.7-0.7-1.2-0.7
		c-0.3,0-0.6,0.2-0.8,0.6c-0.2,0.4-0.3,0.9-0.3,1.6c0,0.6,0.1,1.2,0.3,1.9c0.2,0.7,0.5,1.3,0.8,1.8C28.1,11.3,28.5,11.6,28.9,11.6z"
		/>
	<path fill="#FFFFFF" d="M42.8,10.4c0.1,0.7,0.3,1.1,0.8,1.2v0.2h-3.4v-0.2c0.2,0,0.4-0.2,0.6-0.4c0.1-0.2,0.2-0.5,0.2-0.8l-0.5-6.9
		c-1,3.3-1.6,5.3-1.7,6c-0.2,0.7-0.2,1.3-0.1,1.7c-0.7,0.3-1.2,0.7-1.6,1.1l-2.5-8.9l-0.5,6.6c-0.1,0.8,0.4,1.3,1.3,1.5v0.2h-3v-0.2
		c0.3,0,0.6-0.2,0.9-0.4c0.3-0.2,0.4-0.6,0.5-1l0.6-6.8c0-0.4-0.1-0.7-0.3-1c-0.2-0.3-0.6-0.4-1-0.5V1.7H36l2.3,8.3l1.6-5.7
		c0.3-1.1,0.4-1.9,0.4-2.6h2.8v0.2c-0.2,0-0.5,0.2-0.6,0.4c-0.2,0.2-0.2,0.5-0.2,0.7C42.5,6.7,42.7,9.1,42.8,10.4z"/>
	<path fill="#FFFFFF" d="M46.3,11.9c-0.6,0-1.1-0.1-1.5-0.4c-0.4-0.3-0.5-0.7-0.5-1.3c0-0.4,0.1-0.7,0.3-1c0.2-0.3,0.5-0.5,0.9-0.7
		c0.3-0.1,0.6-0.3,1-0.4c0.3-0.1,0.7-0.2,1.1-0.3c0.4-0.1,0.6-0.1,0.8-0.2v-1c0-0.6-0.1-1-0.4-1.3c-0.2-0.3-0.5-0.5-0.9-0.5
		c-0.3,0-0.5,0.1-0.7,0.2c-0.2,0.2-0.2,0.4-0.2,0.6c0,0.1,0,0.3,0.1,0.5c0.1,0.2,0.1,0.4,0.1,0.5c0,0.2-0.1,0.4-0.3,0.6
		c-0.2,0.1-0.4,0.2-0.7,0.2c-0.3,0-0.5-0.1-0.6-0.3c-0.1-0.2-0.2-0.4-0.2-0.7c0-0.5,0.3-1,0.8-1.3c0.5-0.4,1.1-0.6,1.8-0.6
		c1.1,0,1.8,0.2,2.3,0.7c0.5,0.5,0.7,1.3,0.7,2.4V10c0,0.5,0.1,0.8,0.2,0.9c0.1,0.2,0.4,0.2,0.7,0v0.2c-0.1,0.2-0.3,0.4-0.6,0.6
		s-0.5,0.2-0.8,0.2c-0.4,0-0.7-0.1-0.9-0.3c-0.2-0.2-0.4-0.5-0.4-0.9c-0.2,0.4-0.5,0.7-0.9,0.9C47.1,11.8,46.7,11.9,46.3,11.9z
		 M47.2,11.1c0.3,0,0.6-0.1,0.8-0.3c0.3-0.2,0.4-0.5,0.4-0.9V7.9l-0.5,0.2l-0.5,0.2c-0.1,0-0.2,0.1-0.5,0.2
		c-0.3,0.1-0.4,0.3-0.6,0.5c-0.1,0.2-0.2,0.4-0.2,0.7c0,0.4,0.1,0.7,0.3,0.9C46.6,10.9,46.9,11.1,47.2,11.1z"/>
	<path fill="#FFFFFF" d="M56.4,10.8c0.7,0,1.2,0.2,1.6,0.5c0.4,0.3,0.6,0.8,0.6,1.5c0,1.5-1.2,2.2-3.7,2.2c-2.3,0-3.4-0.5-3.4-1.6
		c0-0.2,0.1-0.5,0.3-0.7c0.2-0.2,0.4-0.4,0.7-0.5c-0.5-0.3-0.7-0.8-0.7-1.4c0-0.6,0.3-1.2,1-1.6c-0.6-0.5-0.9-1.2-0.9-1.9
		c0-0.7,0.3-1.4,0.9-1.9c0.6-0.5,1.3-0.8,2.1-0.8c0.7,0,1.4,0.2,1.9,0.6c0-0.1,0-0.2,0-0.2c0-0.3,0.1-0.6,0.4-0.8
		c0.2-0.2,0.5-0.3,0.9-0.3c0.2,0,0.4,0.1,0.6,0.2c0.2,0.1,0.2,0.3,0.2,0.5c0,0.2-0.1,0.4-0.2,0.6c-0.1,0.1-0.3,0.2-0.5,0.2
		c-0.2,0-0.3-0.1-0.4-0.3c-0.1-0.2-0.2-0.3-0.3-0.3C57.1,4.9,57,5,57,5.2c0,0.1,0,0.1,0.1,0.3c0.1,0.1,0.2,0.3,0.3,0.4
		c0.1,0.2,0.2,0.4,0.3,0.6c0.1,0.2,0.1,0.5,0.1,0.7c0,0.7-0.3,1.4-0.9,1.9c-0.6,0.5-1.3,0.8-2.1,0.8c-0.7,0-1.3-0.2-1.9-0.6
		c-0.2,0.2-0.3,0.5-0.3,0.7c0,0.6,0.4,0.9,1.2,0.9c0.3,0,0.7,0,1.3-0.1C55.7,10.8,56.1,10.8,56.4,10.8z M55,14.7
		c0.8,0,1.4-0.1,1.9-0.4c0.5-0.2,0.7-0.6,0.7-1c0-0.3-0.1-0.5-0.3-0.7c-0.2-0.1-0.5-0.2-1-0.2c-0.2,0-0.6,0-1.2,0.1
		c-0.7,0-1.1,0.1-1.3,0.1c-0.3,0-0.5,0-0.8-0.1c-0.2,0.2-0.3,0.5-0.3,0.8c0,0.4,0.2,0.8,0.6,1C53.7,14.6,54.3,14.7,55,14.7z
		 M54.5,4.9c-0.5,0-0.7,0.4-0.7,1.3c0,0.5,0.1,1,0.2,1.5c0.1,0.5,0.3,1,0.5,1.3c0.2,0.4,0.5,0.6,0.8,0.6c0.2,0,0.3-0.1,0.4-0.2
		c0.1-0.1,0.2-0.2,0.2-0.4C55.9,9,56,8.8,56,8.7c0-0.1,0-0.3,0-0.4c0-0.7-0.1-1.4-0.4-2.2C55.3,5.3,54.9,4.9,54.5,4.9z"/>
	<path fill="#FFFFFF" d="M66.1,10.2c0,0.3,0.1,0.6,0.2,0.9c0.2,0.2,0.3,0.4,0.5,0.4v0.2h-3.3v-0.2c0.2,0,0.4-0.2,0.5-0.4
		c0.2-0.2,0.2-0.5,0.2-0.9V7.4c0-0.8-0.1-1.4-0.3-1.8c-0.2-0.3-0.4-0.5-0.8-0.5c-0.3,0-0.5,0.1-0.7,0.3c-0.2,0.2-0.4,0.5-0.6,0.8v4
		c0,0.4,0.1,0.7,0.2,0.9c0.1,0.2,0.3,0.3,0.5,0.4v0.2h-3.3v-0.2c0.2,0,0.4-0.2,0.5-0.4c0.2-0.2,0.2-0.5,0.2-0.9V6.4
		c0-0.7-0.3-1.1-0.8-1.2V5l2.6-0.5l-0.2,1.7c0.2-0.5,0.5-0.9,0.9-1.2c0.4-0.3,0.8-0.4,1.3-0.4c0.7,0,1.3,0.2,1.7,0.7
		c0.4,0.5,0.6,1.1,0.6,1.9V10.2z"/>
	<path fill="#FFFFFF" d="M71.7,10.6c0.4,0,0.7-0.1,1.1-0.3c0.4-0.2,0.6-0.5,0.8-0.9v0.4c-0.2,0.6-0.5,1.1-1.1,1.5
		c-0.5,0.4-1.1,0.6-1.8,0.6c-0.9,0-1.7-0.4-2.4-1.1c-0.7-0.8-1-1.6-1-2.6s0.3-1.9,1-2.6c0.7-0.7,1.5-1.1,2.4-1.1
		c0.7,0,1.4,0.2,1.9,0.7c0.5,0.4,0.9,1,1.1,1.7l-4.6,0.9c0.1,0.8,0.4,1.4,0.8,1.9C70.4,10.4,71,10.6,71.7,10.6z M70.1,4.9
		c-0.3,0-0.5,0.1-0.6,0.4c-0.2,0.3-0.3,0.6-0.3,0.9c0,0.3-0.1,0.6-0.1,0.9c0,0,0,0.2,0,0.6L71,7.3c0.4-0.1,0.6-0.3,0.6-0.7
		c0-0.4-0.1-0.8-0.4-1.1C70.8,5.1,70.5,4.9,70.1,4.9z"/>
	<path fill="#FFFFFF" d="M78.6,5.1h-1.7v4.6c0,0.3,0,0.6,0.1,0.8c0.1,0.2,0.2,0.4,0.3,0.5s0.2,0.2,0.3,0.2c0.1,0,0.2,0.1,0.4,0
		c0.1,0,0.2,0,0.3-0.1c0.1,0,0.2-0.1,0.2-0.1v0.2c-0.2,0.2-0.5,0.4-0.9,0.5c-0.3,0.1-0.6,0.2-0.9,0.2c-0.5,0-0.9-0.2-1.1-0.5
		c-0.3-0.4-0.4-0.9-0.4-1.5V5.1h-1V4.8c0.5-0.1,1-0.5,1.6-1c0.5-0.5,0.9-1.1,1.1-1.6h0.2v2.6c0.7,0,1.3-0.1,1.8-0.3L78.6,5.1z"/>
</g>
</svg>
